<svg width="81" height="24" viewBox="0 0 81 24" fill="none" xmlns="http://www.w3.org/2000/svg">
<g clip-path="url(#clip0_26_442)">
<path fill-rule="evenodd" clip-rule="evenodd" d="M77.4967 23.8455H2.98178C1.3384 23.8455 0 22.5016 0 20.8648V2.98069C0 1.33796 1.3384 0 2.98178 0H77.4967C79.1386 0 80.4785 1.33796 80.4785 2.98069V20.8648C80.4785 22.5016 79.1386 23.8455 77.4967 23.8455Z" fill="black"/>
<path fill-rule="evenodd" clip-rule="evenodd" d="M77.4967 0.477207C78.8751 0.477207 80.0033 1.60258 80.0033 2.98069V20.8648C80.0033 22.2429 78.8825 23.3683 77.4967 23.3683H2.98178C1.60341 23.3683 0.475249 22.2429 0.475249 20.8648V2.98069C0.475249 1.60258 1.59601 0.477207 2.98178 0.477207H77.4967ZM77.4967 0H2.98178C1.3384 0 0 1.34391 0 2.98069V20.8648C0 22.5075 1.3384 23.8455 2.98178 23.8455H77.4967C79.1386 23.8455 80.4785 22.5075 80.4785 20.8648V2.98069C80.4785 1.34391 79.1386 0 77.4967 0Z" fill="#212121"/>
<path d="M42.3957 7.88827C41.8583 7.88827 41.4053 7.69947 41.047 7.32781C40.6917 6.96656 40.4933 6.46854 40.5021 5.96012C40.5021 5.4175 40.6857 4.95813 41.047 4.59391C41.4038 4.22225 41.8568 4.03345 42.3942 4.03345C42.9258 4.03345 43.3788 4.22225 43.743 4.59391C44.1042 4.97002 44.2878 5.42939 44.2878 5.96012C44.2819 6.50422 44.0983 6.96359 43.743 7.32632C43.3862 7.70095 42.9332 7.88827 42.3957 7.88827ZM26.4047 7.88827C25.8791 7.88827 25.4231 7.70244 25.05 7.33524C24.6798 6.96953 24.4918 6.50719 24.4918 5.9616C24.4918 5.41601 24.6798 4.95367 25.05 4.58796C25.4157 4.22076 25.8717 4.03493 26.4047 4.03493C26.6652 4.03493 26.9184 4.08697 27.1612 4.19252C27.3996 4.29509 27.5935 4.43484 27.7371 4.6058L27.7726 4.64891L27.3714 5.04435L27.33 4.99529C27.1035 4.72473 26.7999 4.59242 26.3987 4.59242C26.0404 4.59242 25.7281 4.72027 25.4704 4.973C25.2114 5.22721 25.0796 5.56021 25.0796 5.96309C25.0796 6.36596 25.2114 6.69897 25.4704 6.95318C25.7281 7.20591 26.0404 7.33376 26.3987 7.33376C26.7807 7.33376 27.102 7.20591 27.3522 6.95318C27.5002 6.80452 27.592 6.59639 27.6246 6.33326H26.338V5.77726H28.1768L28.1842 5.82781C28.1976 5.92146 28.2109 6.01809 28.2109 6.10729C28.2109 6.62018 28.0569 7.03495 27.7519 7.34119C27.4055 7.70393 26.9524 7.88827 26.4047 7.88827ZM47.6664 7.80948H47.0993L45.3627 5.01908L45.3775 5.52156V7.80799H44.8105V4.11373H45.4574L45.4752 4.14197L47.1082 6.77033L47.0934 6.26933V4.11373H47.6664V7.80948ZM38.1348 7.80948H37.5604V4.66972H36.564V4.11373H39.1297V4.66972H38.1333V7.80948H38.1348ZM36.0961 7.80948H35.5232V4.11373H36.0961V7.80948ZM32.876 7.80948H32.303V4.66972H31.3066V4.11373H33.8724V4.66972H32.876V7.80948ZM30.9439 7.80353H28.7468V4.11373H30.9439V4.66972H29.3213V5.6836H30.7855V6.23365H29.3213V7.24753H30.9439V7.80353ZM41.4674 6.94575C41.7236 7.20293 42.0345 7.33227 42.3957 7.33227C42.7673 7.33227 43.0708 7.20591 43.324 6.94575C43.5757 6.69302 43.703 6.3615 43.703 5.9616C43.703 5.5617 43.5757 5.22869 43.3255 4.97745C43.0694 4.72027 42.757 4.59093 42.3972 4.59093C42.0256 4.59093 41.7221 4.7173 41.4704 4.97745C41.2187 5.23018 41.0914 5.5617 41.0914 5.9616C41.0914 6.3615 41.2172 6.69451 41.4674 6.94575Z" fill="#FAFAFA"/>
<path fill-rule="evenodd" clip-rule="evenodd" d="M40.4492 12.9685C39.0501 12.9685 37.916 14.0344 37.916 15.5047C37.916 16.9616 39.0575 18.0409 40.4492 18.0409C41.8483 18.0409 42.9824 16.9675 42.9824 15.5047C42.9824 14.0344 41.8483 12.9685 40.4492 12.9685ZM40.4492 17.0359C39.6837 17.0359 39.0249 16.3996 39.0249 15.4987C39.0249 14.5845 39.6852 13.9616 40.4492 13.9616C41.2146 13.9616 41.8734 14.5845 41.8734 15.4987C41.8749 16.4056 41.2146 17.0359 40.4492 17.0359ZM34.9224 12.9685C33.5233 12.9685 32.3892 14.0344 32.3892 15.5047C32.3892 16.9616 33.5307 18.0409 34.9224 18.0409C36.3215 18.0409 37.4555 16.9675 37.4555 15.5047C37.4555 14.0344 36.32 12.9685 34.9224 12.9685ZM34.9224 17.0359C34.1569 17.0359 33.4981 16.3996 33.4981 15.4987C33.4981 14.5845 34.1584 13.9616 34.9224 13.9616C35.6878 13.9616 36.3466 14.5845 36.3466 15.4987C36.3466 16.4056 35.6878 17.0359 34.9224 17.0359ZM28.3459 13.743V14.8164H30.9116C30.8331 15.4185 30.6348 15.863 30.3312 16.1677C29.9552 16.5453 29.3748 16.9556 28.3518 16.9556C26.775 16.9556 25.5417 15.6771 25.5417 14.0939C25.5417 12.5106 26.775 11.2321 28.3518 11.2321C29.2031 11.2321 29.8234 11.5696 30.2839 12.0007L31.0419 11.2396C30.4023 10.6241 29.551 10.1528 28.3577 10.1528C26.1946 10.1528 24.3795 11.9219 24.3795 14.0879C24.3795 16.2599 26.1932 18.023 28.3577 18.023C29.5258 18.023 30.4023 17.6395 31.0952 16.917C31.8014 16.2079 32.025 15.2074 32.025 14.4001C32.025 14.1489 32.0057 13.9229 31.9658 13.7311H28.3444C28.3459 13.7297 28.3459 13.743 28.3459 13.743ZM55.2456 14.5785C55.0339 14.0091 54.3943 12.9626 53.0825 12.9626C51.7826 12.9626 50.7018 13.9898 50.7018 15.4987C50.7018 16.9229 51.7708 18.0349 53.2084 18.0349C54.3632 18.0349 55.0354 17.3258 55.3122 16.9095L54.455 16.3327C54.1707 16.7564 53.7754 17.0344 53.2143 17.0344C52.6473 17.0344 52.2505 16.7758 51.9869 16.2658L55.364 14.861C55.364 14.8625 55.2456 14.5785 55.2456 14.5785ZM51.8019 15.4259C51.7752 14.4462 52.5599 13.9482 53.121 13.9482C53.5637 13.9482 53.9324 14.1667 54.0582 14.4849L51.8019 15.4259ZM49.0585 17.8833H50.1674V10.4323H49.0585V17.8833ZM47.2374 13.5319H47.1974C46.9472 13.2331 46.472 12.9626 45.865 12.9626C44.605 12.9626 43.4443 14.076 43.4443 15.5062C43.4443 16.9304 44.5991 18.0305 45.865 18.0305C46.4646 18.0305 46.9472 17.7584 47.1974 17.4537H47.2374V17.8179C47.2374 18.7857 46.7222 19.3075 45.8916 19.3075C45.212 19.3075 44.7901 18.8169 44.6183 18.4066L43.6545 18.8109C43.9314 19.4799 44.6702 20.308 45.8901 20.308C47.19 20.308 48.2915 19.5394 48.2915 17.6648V13.1142H47.2433V13.5319C47.2448 13.5319 47.2374 13.5319 47.2374 13.5319ZM45.9642 17.0359C45.1987 17.0359 44.5591 16.3937 44.5591 15.5062C44.5591 14.6112 45.1987 13.9631 45.9642 13.9631C46.7222 13.9631 47.31 14.6187 47.31 15.5062C47.3174 16.3937 46.7237 17.0359 45.9642 17.0359ZM60.4378 10.4323H57.7862V17.8833H58.8951V15.0617H60.4393C61.6666 15.0617 62.8733 14.1682 62.8733 12.75C62.8733 11.3317 61.6711 10.4323 60.4378 10.4323ZM60.4704 14.021H58.8936V11.464H60.4704C61.301 11.464 61.7703 12.1523 61.7703 12.7425C61.7703 13.3268 61.295 14.021 60.4704 14.021ZM67.3178 12.9551C66.5124 12.9551 65.6818 13.3134 65.3384 14.0939L66.3214 14.5042C66.5331 14.0939 66.921 13.9541 67.3311 13.9541C67.9056 13.9541 68.486 14.299 68.4993 14.9145V14.9933C68.3009 14.8803 67.8656 14.7079 67.3445 14.7079C66.2829 14.7079 65.2066 15.2906 65.2066 16.3833C65.2066 17.3838 66.0771 18.026 67.0469 18.026C67.7916 18.026 68.2017 17.6885 68.4578 17.2976H68.4978V17.8744H69.5667V15.02C69.5667 13.691 68.5837 12.9551 67.3178 12.9551ZM67.1787 17.0359C66.8159 17.0359 66.3081 16.8575 66.3081 16.3996C66.3081 15.8228 66.9418 15.6043 67.4822 15.6043C67.9707 15.6043 68.2017 15.7098 68.4919 15.8555C68.4119 16.5245 67.8493 17.03 67.1787 17.0359ZM73.4665 13.1142L72.1932 16.3461H72.1532L70.8341 13.1142H69.6408L71.6202 17.632L70.4921 20.143H71.6469L74.6923 13.1142H73.4665ZM63.4847 17.8833H64.5936V10.4323H63.4847V17.8833Z" fill="#FAFAFA"/>
<path fill-rule="evenodd" clip-rule="evenodd" d="M6.19391 4.49009C6.02217 4.67592 5.92297 4.95986 5.92297 5.33152V18.5134C5.92297 18.8851 6.02217 19.169 6.19983 19.3474L6.24573 19.3876L13.601 12.002V11.837L6.23981 4.44995L6.19391 4.49009Z" fill="url(#paint0_linear_26_442)"/>
<path fill-rule="evenodd" clip-rule="evenodd" d="M16.0503 14.4744L13.597 12.011V11.8386L16.0503 9.37524L16.1036 9.40795L19.0054 11.0641C19.836 11.5338 19.836 12.3098 19.0054 12.7856L16.1036 14.4417L16.0503 14.4744Z" fill="url(#paint1_linear_26_442)"/>
<path fill-rule="evenodd" clip-rule="evenodd" d="M16.102 14.44L13.5955 11.9231L6.19434 19.3547C6.46527 19.6461 6.91979 19.6788 7.42762 19.3949L16.102 14.44Z" fill="url(#paint2_linear_26_442)"/>
<path fill-rule="evenodd" clip-rule="evenodd" d="M16.102 9.40676L7.42762 4.45926C6.91979 4.16788 6.46379 4.20802 6.19434 4.4994L13.5955 11.9236L16.102 9.40676Z" fill="url(#paint3_linear_26_442)"/>
<path opacity="0.2" fill-rule="evenodd" clip-rule="evenodd" d="M16.0474 14.3865L7.43214 19.3012C6.95096 19.5792 6.52161 19.5599 6.24475 19.3072L6.19885 19.3533L6.24475 19.3934C6.52161 19.6447 6.95096 19.6655 7.43214 19.3875L16.1066 14.44L16.0474 14.3865Z" fill="#FAFAFA"/>
<path opacity="0.12" fill-rule="evenodd" clip-rule="evenodd" d="M19.0038 12.6976L16.0413 14.3864L16.0946 14.44L18.9964 12.7839C19.4124 12.546 19.6167 12.2338 19.6167 11.9231C19.5916 12.2085 19.3798 12.4791 19.0038 12.6976Z" fill="#FAFAFA"/>
<path opacity="0.25" fill-rule="evenodd" clip-rule="evenodd" d="M7.42756 4.5454L19.0038 11.149C19.3799 11.3616 19.5916 11.6396 19.6241 11.9235C19.6241 11.6128 19.4198 11.3006 19.0038 11.0628L7.42756 4.45917C6.59698 3.98197 5.92334 4.38038 5.92334 5.33331V5.41954C5.92334 4.46512 6.59698 4.07414 7.42756 4.5454Z" fill="white"/>
</g>
<defs>
<linearGradient id="paint0_linear_26_442" x1="12.9412" y1="5.1893" x2="1.15298" y2="8.31741" gradientUnits="userSpaceOnUse">
<stop stop-color="#00A0FF"/>
<stop offset="0.00657" stop-color="#00A1FF"/>
<stop offset="0.2601" stop-color="#00BEFF"/>
<stop offset="0.5122" stop-color="#00D2FF"/>
<stop offset="0.7604" stop-color="#00DFFF"/>
<stop offset="1" stop-color="#00E3FF"/>
</linearGradient>
<linearGradient id="paint1_linear_26_442" x1="20.0886" y1="11.9248" x2="5.72304" y2="11.9248" gradientUnits="userSpaceOnUse">
<stop stop-color="#FFE000"/>
<stop offset="0.4087" stop-color="#FFBD00"/>
<stop offset="0.7754" stop-color="#FFA500"/>
<stop offset="1" stop-color="#FF9C00"/>
</linearGradient>
<linearGradient id="paint2_linear_26_442" x1="14.7391" y1="13.2926" x2="5.22307" y2="29.2431" gradientUnits="userSpaceOnUse">
<stop stop-color="#FF3A44"/>
<stop offset="1" stop-color="#C31162"/>
</linearGradient>
<linearGradient id="paint3_linear_26_442" x1="4.33064" y1="0.107457" x2="8.57613" y2="7.23123" gradientUnits="userSpaceOnUse">
<stop stop-color="#32A071"/>
<stop offset="0.0685" stop-color="#2DA771"/>
<stop offset="0.4762" stop-color="#15CF74"/>
<stop offset="0.8009" stop-color="#06E775"/>
<stop offset="1" stop-color="#00F076"/>
</linearGradient>
<clipPath id="clip0_26_442">
<rect width="80.4785" height="23.8455" fill="white"/>
</clipPath>
</defs>
</svg>
