<svg width="81" height="24" viewBox="0 0 81 24" fill="none" xmlns="http://www.w3.org/2000/svg">
<g clip-path="url(#clip0_26_454)">
<path d="M80.3511 21.1323C80.3512 21.4306 80.2918 21.7259 80.1764 22.0014C80.061 22.277 79.8919 22.5273 79.6786 22.738C79.4654 22.9488 79.2122 23.1158 78.9337 23.2297C78.6551 23.3435 78.3566 23.4019 78.0553 23.4014H2.92543C1.65742 23.4028 0.628355 22.387 0.626709 21.1325V3.03803C0.628355 1.78303 1.65697 0.766409 2.92543 0.766113H78.0548C78.6637 0.766153 79.2476 1.00552 79.6781 1.43158C80.1087 1.85763 80.3506 2.43548 80.3507 3.03803L80.3513 21.1325L80.3511 21.1323Z" fill="white"/>
<path d="M78.0557 23.9299H2.92589C1.36404 23.9296 0.0972306 22.6783 0.0942383 21.133V3.03942C0.0964825 1.49317 1.36329 0.240686 2.92589 0.239502H78.0553C79.6177 0.241427 80.8841 1.49361 80.8869 3.03942V21.133C80.8881 22.6758 79.6158 23.9299 78.0559 23.9299H78.0557Z" fill="#A6A6A6"/>
<path d="M80.3511 21.1323C80.3512 21.4306 80.2918 21.7259 80.1764 22.0014C80.061 22.277 79.8919 22.5273 79.6786 22.738C79.4654 22.9488 79.2122 23.1158 78.9337 23.2297C78.6551 23.3435 78.3566 23.4019 78.0553 23.4014H2.92543C1.65742 23.4028 0.628355 22.387 0.626709 21.1325V3.03803C0.628355 1.78303 1.65697 0.766409 2.92543 0.766113H78.0548C78.6637 0.766153 79.2476 1.00552 79.6781 1.43158C80.1087 1.85763 80.3506 2.43548 80.3507 3.03803L80.3513 21.1325L80.3511 21.1323Z" fill="black"/>
<path d="M18.1349 11.961C18.1175 10.0516 19.7151 9.1226 19.7881 9.07936C18.8834 7.77432 17.481 7.59605 16.9882 7.58183C15.8104 7.45909 14.6679 8.27907 14.0678 8.27907C13.4559 8.27907 12.532 7.59353 11.5363 7.61381C10.2548 7.63336 9.05593 8.36747 8.39851 9.50712C7.04163 11.8313 8.05364 15.2466 9.35352 17.1251C10.0039 18.0458 10.7637 19.0724 11.7583 19.0363C12.7314 18.9972 13.0948 18.4232 14.269 18.4232C15.4325 18.4232 15.7739 19.0362 16.7881 19.0132C17.8325 18.9972 18.4899 18.089 19.1175 17.1606C19.8689 16.1067 20.1708 15.0677 20.1828 15.0143C20.1589 15.006 18.1552 14.2489 18.1349 11.961ZM16.2187 6.34593C16.7421 5.69844 17.1001 4.81745 17.0008 3.92358C16.2432 3.95675 15.296 4.44181 14.7505 5.07524C14.2678 5.63329 13.8368 6.54804 13.9481 7.40815C14.799 7.47093 15.6726 6.9835 16.2187 6.34593Z" fill="white"/>
<path d="M78.0555 0.239502H37.8137L53.5757 23.9299H78.0555C79.6177 23.9286 80.8843 22.6769 80.8872 21.1314V3.03927C80.8846 1.49361 79.6181 0.241131 78.0555 0.239502Z" fill="url(#paint0_linear_26_454)"/>
<path d="M32.2282 18.9036H30.8684L30.1234 16.5878H27.5343L26.8247 18.9036H25.5009L28.0666 11.0197H29.6511L32.2282 18.9037V18.9036ZM29.899 15.6164L29.2253 13.5577C29.1541 13.3474 29.0199 12.852 28.8236 12.0724H28.7996C28.7205 12.4078 28.5942 12.9031 28.4211 13.5575L27.7589 15.6164H29.899ZM38.8138 15.9913C38.8138 16.9581 38.5485 17.7223 38.0174 18.2833C37.5419 18.7828 36.9509 19.0322 36.2461 19.0322C35.4851 19.0322 34.9378 18.7638 34.6054 18.2259V21.2088H33.3288V15.0873C33.3288 14.48 33.3127 13.8574 33.2815 13.2188H34.4043L34.4755 14.1199H34.4994C34.9252 13.441 35.5713 13.1015 36.4385 13.1015C37.1162 13.1015 37.6821 13.3662 38.1347 13.8966C38.5868 14.4279 38.8138 15.1258 38.8138 15.9913ZM37.5132 16.0375C37.5132 15.4842 37.3875 15.028 37.1346 14.6685C36.8587 14.2946 36.488 14.1073 36.0234 14.1073C35.7083 14.1073 35.4221 14.2117 35.1666 14.4172C34.9103 14.6245 34.7426 14.8954 34.6642 15.2307C34.6291 15.3561 34.6092 15.4851 34.6048 15.6152V16.5635C34.6048 16.9767 34.733 17.3255 34.9893 17.611C35.2456 17.8952 35.5785 18.0381 35.988 18.0381C36.4688 18.0381 36.8432 17.8539 37.1109 17.4884C37.379 17.1216 37.5132 16.6382 37.5132 16.0375ZM45.4227 15.9913C45.4227 16.9581 45.1574 17.7223 44.6263 18.2833C44.1502 18.7828 43.5598 19.0322 42.8544 19.0322C42.0934 19.0322 41.5461 18.7638 41.2137 18.2259V21.2088H39.9371V15.0873C39.9371 14.48 39.921 13.8574 39.8898 13.2188H41.0126L41.0838 14.1199H41.1077C41.5328 13.441 42.179 13.1015 43.0466 13.1015C43.7238 13.1015 44.2896 13.3662 44.7436 13.8966C45.1951 14.4279 45.4227 15.1258 45.4227 15.9913ZM44.1215 16.0375C44.1215 15.4842 43.995 15.028 43.7423 14.6685C43.4663 14.2946 43.0969 14.1073 42.6322 14.1073C42.3172 14.1073 42.031 14.2117 41.7741 14.4172C41.5178 14.6245 41.3507 14.8954 41.2725 15.2307C41.2336 15.387 41.2126 15.5144 41.2126 15.6152V16.5635C41.2126 16.9767 41.3413 17.3255 41.5964 17.611C41.8527 17.8948 42.1856 18.0381 42.5963 18.0381C43.0777 18.0381 43.4521 17.8539 43.719 17.4884C43.9873 17.1216 44.1215 16.6382 44.1215 16.0375ZM52.8117 16.6922C52.8117 17.3634 52.5745 17.909 52.1034 18.3303C51.5848 18.7899 50.8608 19.0202 49.9327 19.0202C49.0753 19.0202 48.3878 18.8569 47.8692 18.5293L48.1644 17.4765C48.7243 17.8048 49.3394 17.9681 50.0088 17.9681C50.4902 17.9681 50.8646 17.8605 51.1315 17.6465C51.3993 17.4321 51.5345 17.1453 51.5345 16.7876C51.5345 16.467 51.4225 16.1987 51.2027 15.98C50.9819 15.7621 50.6165 15.5588 50.1033 15.3722C48.7081 14.8574 48.01 14.1045 48.01 13.1139C48.01 12.4669 48.2567 11.9374 48.749 11.5233C49.2412 11.1097 49.8938 10.9029 50.7058 10.9029C51.4309 10.9029 52.035 11.028 52.5147 11.2775L52.1944 12.307C51.7428 12.0653 51.2332 11.9445 50.6632 11.9445C50.2128 11.9445 49.8597 12.0541 49.6069 12.272C49.3944 12.467 49.2867 12.7045 49.2867 12.9866C49.2867 13.2975 49.4094 13.5559 49.6537 13.7585C49.8657 13.945 50.2525 14.1483 50.8117 14.3663C51.4979 14.64 52.0021 14.9587 52.3248 15.3248C52.6501 15.691 52.8117 16.1478 52.8117 16.6922ZM57.0433 14.1667H55.6362V16.9268C55.6362 17.6287 55.8841 17.9789 56.3811 17.9789C56.6093 17.9789 56.7985 17.96 56.9482 17.9203L56.9835 18.8794C56.7321 18.9724 56.4008 19.0192 55.9907 19.0192C55.4865 19.0192 55.0924 18.867 54.808 18.5624C54.5248 18.2579 54.3824 17.7479 54.3824 17.03V14.1642H53.5441V13.2164H54.3824V12.1755L55.6362 11.801V13.2165H57.0433V14.1667ZM63.3797 16.0145C63.3797 16.8881 63.127 17.6056 62.623 18.1666C62.0954 18.7443 61.3936 19.0322 60.5188 19.0322C59.6745 19.0322 59.0031 18.7555 58.5027 18.2028C58.0021 17.649 57.7517 16.951 57.7517 16.1091C57.7517 15.2281 58.0104 14.5066 58.526 13.9456C59.0428 13.384 59.7385 13.1031 60.6133 13.1031C61.4564 13.1031 62.1337 13.3804 62.6463 13.9338C63.136 14.4705 63.3797 15.1637 63.3797 16.0144V16.0145ZM62.0565 16.0434C62.0565 15.5226 61.9428 15.0761 61.7145 14.7022C61.4468 14.2508 61.0637 14.0251 60.5672 14.0251C60.0558 14.0251 59.6636 14.2508 59.3966 14.7022C59.1679 15.0761 59.054 15.5303 59.054 16.0671C59.054 16.5884 59.1679 17.0363 59.3966 17.409C59.6727 17.8605 60.0576 18.0861 60.5565 18.0861C61.0445 18.0861 61.4272 17.8557 61.7037 17.3976C61.9386 17.015 62.0565 16.5655 62.0565 16.0434ZM67.5312 14.3295C67.3984 14.3058 67.2637 14.2941 67.1287 14.2946C66.6799 14.2946 66.3324 14.4616 66.0881 14.7982C65.8761 15.0943 65.7694 15.4689 65.7694 15.9208V18.9037H64.4929V15.009C64.4941 14.4123 64.4817 13.8156 64.4558 13.2193H65.5677L65.6144 14.307H65.6497C65.7851 13.9332 65.9972 13.6317 66.2882 13.4059C66.5546 13.2087 66.8782 13.1019 67.2108 13.1015C67.3289 13.1015 67.4353 13.1098 67.53 13.1246L67.5312 14.3295ZM73.2406 15.7923C73.2439 15.9843 73.2283 16.1761 73.194 16.3651H69.3641C69.3785 16.9268 69.5642 17.3569 69.9198 17.653C70.2425 17.9173 70.66 18.05 71.1724 18.05C71.7395 18.05 72.2568 17.9611 72.7221 17.7817L72.9222 18.6578C72.3785 18.8925 71.7365 19.0091 70.9959 19.0091C70.1049 19.0091 69.4054 18.7496 68.8964 18.2318C68.3886 17.7136 68.1341 17.0168 68.1341 16.1441C68.1341 15.2875 68.3707 14.5737 68.8444 14.0044C69.3402 13.3964 70.0102 13.0926 70.8533 13.0926C71.6814 13.0926 72.3083 13.3964 72.7341 14.0044C73.0712 14.4859 73.2407 15.0832 73.2407 15.7923H73.2406ZM72.0233 15.4646C72.0323 15.0897 71.9485 14.7668 71.7755 14.4936C71.5545 14.1418 71.2145 13.9665 70.7587 13.9665C70.3413 13.9665 70.0012 14.1376 69.7425 14.4812C69.5301 14.7543 69.4036 15.0826 69.3647 15.4634L72.0234 15.4646H72.0233ZM27.1661 8.23236C26.8109 8.23236 26.5037 8.21519 26.248 8.18616V4.37452C26.6056 4.31974 26.9671 4.29294 27.3289 4.29397C28.793 4.29397 29.4672 5.00661 29.4672 6.16833C29.4672 7.50832 28.6708 8.23236 27.1661 8.23236ZM27.3803 4.78259C27.1829 4.78259 27.0145 4.79443 26.8751 4.82301V7.7205C26.9505 7.73234 27.0953 7.73768 27.299 7.73768C28.2583 7.73768 28.8044 7.19724 28.8044 6.18551C28.8044 5.2832 28.3104 4.78259 27.3803 4.78259ZM31.5684 8.26138C30.7433 8.26138 30.2084 7.6518 30.2084 6.82411C30.2084 5.96163 30.7545 5.34657 31.6151 5.34657C32.4283 5.34657 32.975 5.92728 32.975 6.77851C32.975 7.6518 32.4115 8.26138 31.5684 8.26138ZM31.5924 5.80054C31.139 5.80054 30.8486 6.21986 30.8486 6.80634C30.8486 7.38158 31.145 7.80105 31.5862 7.80105C32.0276 7.80105 32.324 7.35256 32.324 6.7945C32.324 6.22593 32.0337 5.80039 31.5924 5.80039V5.80054ZM37.6803 5.40417L36.797 8.19801H36.2215L35.8557 6.98476C35.7647 6.68797 35.689 6.38682 35.6287 6.08245H35.6168C35.5707 6.38688 35.4833 6.69204 35.3904 6.98476L35.0012 8.19801H34.4198L33.5887 5.40402H34.2336L34.5533 6.73231C34.6289 7.04873 34.6923 7.34723 34.745 7.62929H34.7569C34.803 7.39402 34.8784 7.10025 34.9893 6.73824L35.3904 5.40476H35.9018L36.2857 6.70981C36.3747 7.01311 36.4504 7.32009 36.5125 7.62988H36.5293C36.5701 7.34264 36.634 7.03747 36.7209 6.70981L37.064 5.40476L37.6803 5.40417ZM40.9316 8.19801H40.3041V6.59372C40.3041 6.09963 40.1126 5.85192 39.7347 5.85192C39.3629 5.85192 39.1072 6.16833 39.1072 6.53627V8.19801H38.4796V6.20254C38.4796 5.95556 38.4736 5.69067 38.4562 5.40343H39.0083L39.0376 5.83459H39.0551C39.2239 5.53609 39.5664 5.34642 39.9503 5.34642C40.5431 5.34642 40.9322 5.79506 40.9322 6.52487L40.9316 8.19786V8.19801ZM42.6622 8.19801H42.034V4.12207H42.6622V8.19801ZM44.9502 8.26138C44.1257 8.26138 43.5902 7.6518 43.5902 6.82411C43.5902 5.96163 44.1363 5.34657 44.9963 5.34657C45.81 5.34657 46.3561 5.92728 46.3561 6.77851C46.3567 7.6518 45.7927 8.26138 44.9502 8.26138ZM44.9735 5.80054C44.5202 5.80054 44.2299 6.21986 44.2299 6.80634C44.2299 7.38158 44.5268 7.80105 44.967 7.80105C45.4088 7.80105 45.7046 7.35256 45.7046 6.7945C45.7053 6.22593 45.4154 5.80039 44.9735 5.80039V5.80054ZM48.8304 8.19801L48.7849 7.87626H48.7681C48.5765 8.13523 48.2968 8.26123 47.9422 8.26123C47.4364 8.26123 47.077 7.91062 47.077 7.43903C47.077 6.74949 47.6813 6.3928 48.7273 6.3928V6.34127C48.7273 5.97348 48.5304 5.78914 48.1411 5.78914C47.8628 5.78914 47.6183 5.85843 47.4035 5.99643L47.2758 5.58836C47.5369 5.42727 47.8626 5.34657 48.2454 5.34657C48.983 5.34657 49.3555 5.73169 49.3555 6.50252V7.53157C49.3555 7.81348 49.3681 8.03203 49.3962 8.1986L48.8304 8.19801ZM48.744 6.80634C48.0471 6.80634 47.6975 6.97351 47.6975 7.36973C47.6975 7.6629 47.8776 7.80638 48.1279 7.80638C48.4471 7.80638 48.744 7.56533 48.744 7.23766V6.80634ZM52.4028 8.19801L52.3735 7.74937H52.3561C52.1758 8.08844 51.8728 8.26138 51.4494 8.26138C50.7687 8.26138 50.2645 7.66897 50.2645 6.83551C50.2645 5.96163 50.7872 5.34598 51.5009 5.34598C51.8788 5.34598 52.1465 5.47228 52.2973 5.72576H52.3099V4.12222H52.9381V7.4448C52.9381 7.71502 52.9447 7.96792 52.9615 8.19786H52.4028V8.19801ZM52.31 6.55404C52.31 6.163 52.0482 5.82941 51.6489 5.82941C51.1835 5.82941 50.8993 6.23763 50.8993 6.81227C50.8993 7.37566 51.1943 7.76137 51.6363 7.76137C52.0308 7.76137 52.3099 7.42185 52.3099 7.01956V6.55404H52.31ZM56.9206 8.26123C56.0961 8.26123 55.5613 7.6518 55.5613 6.82411C55.5613 5.96163 56.1074 5.34657 56.9673 5.34657C57.7812 5.34657 58.3273 5.92728 58.3273 6.77851C58.3278 7.6518 57.7643 8.26138 56.9206 8.26138V8.26123ZM56.944 5.80039C56.4912 5.80039 56.2008 6.21986 56.2008 6.80634C56.2008 7.38158 56.4972 7.80105 56.938 7.80105C57.3799 7.80105 57.6756 7.35256 57.6756 6.7945C57.6769 6.22593 57.3865 5.80039 56.944 5.80039ZM61.7019 8.19801H61.0738V6.59372C61.0738 6.09963 60.8823 5.85192 60.5044 5.85192C60.1326 5.85192 59.8775 6.16833 59.8775 6.53627V8.19801H59.2493V6.20254C59.2493 5.95556 59.2433 5.69067 59.2259 5.40343H59.778L59.8073 5.83459H59.8247C59.993 5.53609 60.3361 5.34598 60.7194 5.34598C61.3122 5.34598 61.7019 5.79432 61.7019 6.52428V8.19786V8.19801ZM65.9241 5.86968H65.2336V7.22641C65.2336 7.57184 65.3545 7.74419 65.5989 7.74419C65.7096 7.74419 65.8025 7.73235 65.8773 7.71517L65.8947 8.18676C65.7732 8.23295 65.6104 8.25605 65.408 8.25605C64.9133 8.25605 64.6175 7.98583 64.6175 7.27852V5.86968H64.2055V5.40417H64.6175V4.89216L65.2336 4.70782V5.40343H65.924V5.86954L65.9241 5.86968ZM69.2461 8.19801H68.6192V6.60557C68.6192 6.10555 68.4281 5.85251 68.0497 5.85251C67.7246 5.85251 67.4217 6.0712 67.4217 6.51377V8.19801H66.7948V4.12207H67.4217V5.80039H67.4342C67.6317 5.49597 67.9181 5.34598 68.2833 5.34598C68.8809 5.34598 69.2461 5.80572 69.2461 6.53627V8.19801ZM72.6497 6.95026H70.7665C70.7785 7.4793 71.1323 7.77795 71.6563 7.77795C71.9347 7.77795 72.191 7.73175 72.4174 7.64588L72.5149 8.07719C72.2479 8.19209 71.9335 8.24954 71.5677 8.24954C70.6845 8.24954 70.1617 7.69725 70.1617 6.84144C70.1617 5.98473 70.6971 5.34065 71.4971 5.34065C72.2185 5.34065 72.6713 5.86968 72.6713 6.66879C72.6753 6.76313 72.6681 6.85761 72.6497 6.95026ZM72.0743 6.50785C72.0743 6.07653 71.8544 5.77196 71.4534 5.77196C71.0928 5.77196 70.8078 6.08245 70.7671 6.50785H72.0743Z" fill="white"/>
</g>
<defs>
<linearGradient id="paint0_linear_26_454" x1="59.3496" y1="23.993" x2="59.3496" y2="-61.4464" gradientUnits="userSpaceOnUse">
<stop stop-color="#1A1A1A" stop-opacity="0.1"/>
<stop offset="0.123" stop-color="#212121" stop-opacity="0.151"/>
<stop offset="0.308" stop-color="#353535" stop-opacity="0.227"/>
<stop offset="0.532" stop-color="#575757" stop-opacity="0.318"/>
<stop offset="0.783" stop-color="#858585" stop-opacity="0.421"/>
<stop offset="1" stop-color="#B3B3B3" stop-opacity="0.51"/>
</linearGradient>
<clipPath id="clip0_26_454">
<rect width="80.4785" height="23.8455" fill="white" transform="translate(0.521484)"/>
</clipPath>
</defs>
</svg>
