<svg width="25" height="30" viewBox="0 0 25 30" fill="none" xmlns="http://www.w3.org/2000/svg">
<path d="M20.4787 15.61C20.4459 11.9265 23.4633 10.1345 23.6012 10.051C21.8925 7.5335 19.2438 7.1896 18.313 7.16218C16.0885 6.92539 13.9307 8.50721 12.7973 8.50721C11.6415 8.50721 9.89656 7.18474 8.01597 7.22388C5.59565 7.26158 3.33132 8.67774 2.08965 10.8762C-0.473088 15.3598 1.4383 21.9481 3.89338 25.5719C5.12176 27.348 6.55672 29.3285 8.43533 29.2589C10.2732 29.1834 10.9596 28.0761 13.1773 28.0761C15.3747 28.0761 16.0196 29.2586 17.9352 29.2143C19.9076 29.1834 21.1493 27.4314 22.3347 25.6405C23.7538 23.6074 24.3241 21.6031 24.3467 21.5C24.3015 21.484 20.5171 20.0236 20.4787 15.61ZM16.8597 4.77802C17.8481 3.52896 18.5244 1.82946 18.3367 0.105103C16.906 0.169084 15.117 1.10481 14.0867 2.32674C13.1751 3.40328 12.361 5.16791 12.5712 6.82714C14.1783 6.94824 15.8282 6.00795 16.8597 4.77802Z" fill="white"/>
</svg>
